<svg xmlns="http://www.w3.org/2000/svg" xmlns:xlink="http://www.w3.org/1999/xlink" viewBox="2365.1 329.4 328.9 131.6">
    <style>
        rect {
            -webkit-animation: colors 12s infinite;
                    animation: colors 12s infinite;
            -webkit-animation-timing-function: linear;
                    animation-timing-function: linear;}
        @-webkit-keyframes colors {
            0% {x: 694;}
            50% {x: 2365;}
            100% {x: 694;}
        }
        @keyframes colors {
            0% {x: 694;}
            50% {x: 2365;}
            100% {x: 694;}
        }
    </style>
    <g>
        <defs>
            <path id="SVGID_1" d="M2655.3,356.1h10.6c1.8,0,3.2,1.5,3.2,3.2c0,1.7-1.5,3.2-3.2,3.2h-10.6c-1.8,0-3.1-1.5-3.1-3.2
                C2652.2,357.6,2653.5,356.1,2655.3,356.1z M2642.5,339.2c0-1.8,1.5-3.2,3.2-3.2c1.8,0,3.2,1.5,3.2,3.2v10.6
                c0,1.8-1.5,3.1-3.2,3.1c-1.8,0-3.2-1.4-3.2-3.1V339.2z M2568.7,329.4h6h9.7c1.8,0,3.2,1.5,3.2,3.2V386c0,1.8-1.5,3.2-3.2,3.2
                c-1.8,0-3.2-1.5-3.2-3.2v-50.1h-12.5c-1.8,0-3.2-1.5-3.2-3.2C2565.5,331,2567,329.4,2568.7,329.4z M2555,332.7
                c0-1.8,1.5-3.2,3.2-3.2c1.8,0,3.2,1.5,3.2,3.2v25.7c0,1.8-1.5,3.2-3.2,3.2c-1.8,0-3.2-1.5-3.2-3.2V332.7z M2466,339.1
                c0-0.9,0.3-1.7,0.9-2.3l6.5-6.5c0.5-0.6,1.2-0.9,2.2-0.9h32.2c1.8,0,3.2,1.5,3.2,3.2c0,1.7-1.5,3.2-3.2,3.2H2477l-4.5,4.6v15.7
                h28.9c1.8,0,3.2,1.5,3.2,3.2s-1.5,3.1-3.2,3.1h-32.1c-1.8,0-3.2-1.4-3.2-3.1v-20.2H2466z M2466,369c0-1.8,1.5-3.2,3.2-3.2
                c1.8,0,3.2,1.5,3.2,3.2v9.3l4.5,4.5h30.8c1.8,0,3.2,1.5,3.2,3.2s-1.5,3.2-3.2,3.2h-32.2c-0.9,0-1.7-0.3-2.2-0.9l-6.5-6.5
                c-0.6-0.5-0.9-1.2-0.9-2.2V369H2466z M2365,339.1c0-0.9,0.3-1.7,0.9-2.3l6.5-6.5c0.5-0.6,1.2-0.9,2.2-0.9h32.2
                c1.8,0,3.2,1.5,3.2,3.2c0,1.7-1.5,3.2-3.2,3.2H2376l-4.5,4.6v15.7h28.9c1.8,0,3.2,1.5,3.2,3.2s-1.5,3.1-3.2,3.1h-32.1
                c-1.8,0-3.2-1.4-3.2-3.1v-20.2H2365z M2365,369c0-1.8,1.5-3.2,3.2-3.2s3.2,1.5,3.2,3.2v9.3l4.5,4.5h30.8c1.8,0,3.2,1.5,3.2,3.2
                s-1.5,3.2-3.2,3.2h-32.2c-0.9,0-1.7-0.3-2.2-0.9l-6.5-6.5c-0.6-0.5-0.9-1.2-0.9-2.2V369H2365z M2371.5,457.7
                c0,1.8-1.5,3.2-3.2,3.2s-3.2-1.5-3.2-3.2V414c0-1.8,1.5-3.2,3.2-3.2s3.2,1.5,3.2,3.2V457.7z M2409.1,460
                c-0.6,0.6-1.4,0.9-2.3,0.9c-0.9,0-1.7-0.3-2.3-0.9l-19.9-19.9h-6.8c-1.8,0-3.2-1.5-3.2-3.2c0-1.7,1.5-3.2,3.2-3.2h21.1l4.6-4.6
                v-16.9l-4.6-4.6h-30.7c-1.8,0-3.2-1.5-3.2-3.2c0-1.7,1.5-3.2,3.2-3.2h32.1c0.9,0,1.7,0.3,2.3,0.9l6.5,6.5
                c0.6,0.7,0.9,1.6,0.9,2.3v19.6c0,0.7-0.3,1.6-0.9,2.3l-6.5,6.5c-0.7,0.6-1.6,0.9-2.3,0.9h-6.7l15.4,15.3
                C2410.3,456.7,2410.3,458.8,2409.1,460z M2457.3,461h-32.2c-0.9,0-1.7-0.3-2.2-0.9l-6.5-6.5c-0.6-0.5-0.9-1.2-0.9-2.2v-10.7
                c0-1.8,1.5-3.2,3.2-3.2c1.8,0,3.2,1.5,3.2,3.2v9.3l4.5,4.5h30.8c1.8,0,3.2,1.5,3.2,3.2S2459,461,2457.3,461z M2457.3,407.6h-30.8
                l-4.5,4.6v15.7h28.9c1.8,0,3.2,1.5,3.2,3.2s-1.5,3.1-3.2,3.1h-32.1c-1.8,0-3.2-1.4-3.2-3.1v-20.3c0-0.9,0.3-1.7,0.9-2.3l6.5-6.5
                c0.5-0.6,1.2-0.9,2.2-0.9h32.2c1.8,0,3.2,1.5,3.2,3.2C2460.6,406,2459,407.6,2457.3,407.6z M2460.5,370c0,0.7-0.3,1.6-0.9,2.3
                l-16,16c-0.6,0.6-1.4,0.9-2.3,0.9h-6.5c-0.9,0-1.7-0.3-2.3-0.9l-16-16c-0.6-0.6-0.9-1.4-0.9-2.3v-37.3c0-1.8,1.5-3.2,3.2-3.2
                c1.8,0,3.2,1.5,3.2,3.2v36l14.2,14.2h3.8l14.2-14.2v-36c0-1.8,1.5-3.2,3.2-3.2c1.8,0,3.2,1.5,3.2,3.2L2460.5,370L2460.5,370z
                    M2497.1,461h-8.6h-12.9c-0.2,0-0.5,0-0.7-0.1c-0.6-0.1-1.1-0.4-1.5-0.9l-6.5-6.5c-0.6-0.5-0.9-1.2-0.9-2.2v-10.7l0,0v-36.3
                c0-1.8,1.5-3.2,3.2-3.2c1.8,0,3.2,1.5,3.2,3.2V450l4.5,4.5h20.2c1.8,0,3.2,1.5,3.2,3.2C2500.3,459.4,2498.9,461,2497.1,461z
                    M2517.5,454.5c1.8,0,3.2,1.5,3.2,3.2c0,1.7-1.5,3.2-3.2,3.2h-8.9c-1.8,0-3.2-1.5-3.2-3.2c0-1.7,1.5-3.2,3.2-3.2h1.2v-46.9h-1.2
                c-1.8,0-3.2-1.5-3.2-3.2c0-1.7,1.5-3.2,3.2-3.2h8.9c1.8,0,3.2,1.5,3.2,3.2c0,1.7-1.5,3.2-3.2,3.2h-1.2v46.9H2517.5z M2523,386
                c0,1.8-1.5,3.2-3.2,3.2c-1.8,0-3.2-1.5-3.2-3.2v-53.3c0-1.2,0.7-2.5,2-2.9c1.4-0.5,2.6-0.3,3.5,0.6l38.5,38.5
                c0.6,0.7,0.9,1.6,0.9,2.3V386c0,1.8-1.5,3.2-3.2,3.2c-1.8,0-3.2-1.5-3.2-3.2v-13.5l-32.1-32V386z M2537.2,454.5h6.8
                c1.8,0,3.1,1.5,3.1,3.2c0,1.7-1.4,3.2-3.1,3.2h-8.1c-0.9,0-1.7-0.3-2.2-0.9l-6.5-6.5c-0.6-0.5-0.9-1.2-0.9-2.2v-40.6
                c0-0.9,0.3-1.7,0.9-2.3l6.5-6.5c0.5-0.6,1.2-0.9,2.2-0.9h8.1c1.8,0,3.1,1.5,3.1,3.2s-1.4,3.2-3.1,3.2h-6.8l-4.5,4.6v38
                L2537.2,454.5z M2571.2,451.4c0,0.8-0.3,1.6-0.9,2.2l-6.5,6.5c-0.6,0.6-1.4,0.9-2.3,0.9h-8c-1.8,0-3.2-1.5-3.2-3.2
                s1.5-3.2,3.2-3.2h6.7l4.6-4.5v-15.8H2552c-1.8,0-3.2-1.4-3.2-3.1s1.5-3.2,3.2-3.2h16c1.8,0,3.2,1.5,3.2,3.2V451.4z M2571.2,414.1
                c0,1.8-1.5,3.1-3.2,3.1c-1.8,0-3.2-1.4-3.2-3.1v-1.9l-4.6-4.6h-6.7c-1.8,0-3.2-1.5-3.2-3.2c0-1.7,1.5-3.2,3.2-3.2h8
                c0.9,0,1.7,0.3,2.3,0.9l6.5,6.5c0.6,0.7,0.9,1.6,0.9,2.3L2571.2,414.1L2571.2,414.1z M2588.9,454.5c1.8,0,3.2,1.5,3.2,3.2
                c0,1.7-1.5,3.2-3.2,3.2h-8.9c-1.8,0-3.2-1.5-3.2-3.2c0-1.7,1.5-3.2,3.2-3.2h1.2v-46.9h-1.2c-1.8,0-3.2-1.5-3.2-3.2
                c0-1.7,1.5-3.2,3.2-3.2h8.9c1.8,0,3.2,1.5,3.2,3.2c0,1.7-1.5,3.2-3.2,3.2h-1.2v46.9H2588.9z M2590.9,332.7c0-1.8,1.4-3.2,3.1-3.2
                h6.1c1.8,0,3.2,1.5,3.2,3.2c0,1.7-1.5,3.2-3.2,3.2h-6.1C2592.3,335.9,2590.9,334.4,2590.9,332.7z M2608.6,454.5h6.8
                c1.8,0,3.1,1.5,3.1,3.2c0,1.7-1.4,3.2-3.1,3.2h-8.1c-0.9,0-1.7-0.3-2.2-0.9l-6.5-6.5c-0.6-0.5-0.9-1.2-0.9-2.2v-40.6
                c0-0.9,0.3-1.7,0.9-2.3l6.5-6.5c0.5-0.6,1.2-0.9,2.2-0.9h8.1c1.8,0,3.1,1.5,3.1,3.2s-1.4,3.2-3.1,3.2h-6.8l-4.5,4.6v38
                L2608.6,454.5z M2642.6,451.4c0,0.8-0.3,1.6-0.9,2.2l-6.5,6.5c-0.6,0.6-1.4,0.9-2.3,0.9h-8c-1.8,0-3.2-1.5-3.2-3.2
                s1.5-3.2,3.2-3.2h6.7l4.6-4.5v-37.8l-4.6-4.6h-6.7c-1.8,0-3.2-1.5-3.2-3.2c0-1.7,1.5-3.2,3.2-3.2h8c0.9,0,1.7,0.3,2.3,0.9
                l6.5,6.5c0.6,0.7,0.9,1.6,0.9,2.3V451.4z M2645.7,382.7c-1.8,0-3.2-1.5-3.2-3.2v-16.9h-16.9c-1.8,0-3.2-1.5-3.2-3.2
                c0-1.7,1.5-3.2,3.2-3.2h10.5h9.7c1.8,0,3.2,1.5,3.2,3.2v20.2C2648.9,381.3,2647.5,382.7,2645.7,382.7z M2693.7,457.7
                c0,1.8-1.5,3.2-3.2,3.2c-1.8,0-3.2-1.5-3.2-3.2v-13.5l-32.1-32.1v45.6c0,1.8-1.5,3.2-3.2,3.2c-1.8,0-3.2-1.5-3.2-3.2v-53.4
                c0-1.2,0.7-2.5,2-2.9c1.4-0.5,2.6-0.3,3.5,0.6l38.5,38.5c0.6,0.7,0.9,1.6,0.9,2.3L2693.7,457.7L2693.7,457.7z M2693.7,430.1
                c0,1.8-1.5,3.2-3.2,3.2c-1.8,0-3.2-1.5-3.2-3.2v-25.7c0-1.8,1.5-3.2,3.2-3.2c1.8,0,3.2,1.5,3.2,3.2V430.1z"/>
        </defs>
        <clipPath id="SVGID_2">
            <use xlink:href="#SVGID_1"  style="overflow:visible;"/>
        </clipPath>
        <linearGradient id="SVGID_3">
            <stop  offset="0" style="stop-color:#00FFFF"/>
            <stop  offset="10%" style="stop-color:#39E3FF"/>
            <stop  offset="20%" style="stop-color:#A9A9FC"/>
            <stop  offset="30%" style="stop-color:#FF97FF"/>
            <stop  offset="40%" style="stop-color:#FF45B8"/>
            <stop  offset="50%" style="stop-color:#FF3B73"/>
            <stop  offset="60%" style="stop-color:#FF45B8"/>
            <stop  offset="70%" style="stop-color:#FF97FF"/>
            <stop  offset="80%" style="stop-color:#A9A9FC"/>
            <stop  offset="90%" style="stop-color:#39E3FF"/>
            <stop  offset="100%" style="stop-color:#00FFFF"/>
        </linearGradient>
        <rect x="694" y="280" clip-path="url(#SVGID_2)" fill="url(#SVGID_3)" width="2000" height="250"/>
    </g>
</svg>