<?xml version="1.0" encoding="utf-8"?>
<!-- Generator: Adobe Illustrator 19.1.0, SVG Export Plug-In . SVG Version: 6.00 Build 0)  -->
<svg version="1.1" id="Слой_1" xmlns="http://www.w3.org/2000/svg" xmlns:xlink="http://www.w3.org/1999/xlink" x="0px" y="0px"
	 viewBox="0 0 40 40" style="enable-background:new 0 0 40 40;" xml:space="preserve">
<style type="text/css">
	.st0{clip-path:url(#SVGID_2_);fill:#FFFFFF;}
</style>
<g>
	<defs>
		<rect id="SVGID_1_" width="40" height="40"/>
	</defs>
	<clipPath id="SVGID_2_">
		<use xlink:href="#SVGID_1_"  style="overflow:visible;"/>
	</clipPath>
	<path class="st0" d="M17.1,22.9H2.9C1.3,22.9,0,21.6,0,20s1.3-2.9,2.9-2.9h8.5H20c1.6,0,2.9,1.3,2.9,2.9v17.1
		c0,1.6-1.3,2.9-2.9,2.9c-1.6,0-2.9-1.3-2.9-2.9V22.9z M28.5,22.9c-1.6,0-2.8-1.3-2.8-2.9s1.2-2.9,2.8-2.9h8.6
		c1.6,0,2.9,1.3,2.9,2.9s-1.3,2.9-2.9,2.9H28.5z"/>
	<path class="st0" d="M22.9,11.5c0,1.6-1.3,2.8-2.9,2.8s-2.9-1.2-2.9-2.8V2.9C17.1,1.3,18.4,0,20,0s2.9,1.3,2.9,2.9V11.5z"/>
</g>
</svg>
